<?xml version="1.0" encoding="UTF-8"?>
<svg xmlns="http://www.w3.org/2000/svg" width="1530" height="520" viewBox="0 0 1530 520">
  <defs>
    <marker id="arrow" viewBox="0 0 10 10" refX="9" refY="5" markerWidth="8" markerHeight="8" orient="auto-start-reverse">
      <path d="M 0 0 L 10 5 L 0 10 z" fill="#64748b"/>
    </marker>
  </defs>
  <rect width="1530" height="520" fill="#ffffff"/>
  <text x="70" y="54" font-size="24" font-weight="900" fill="#172033">Ridendine Money Movement Schematic</text>
  <text x="70" y="82" font-size="14" fill="#64748b">How the customer charge becomes ledger allocations, payables, payout debits, refund reversals, and reconciliation status.</text>
  <path d="M 290 196 L 350 196" fill="none" stroke="#64748b" stroke-width="2.5"  marker-end="url(#arrow)"/>
<path d="M 570 196 L 650 106" fill="none" stroke="#64748b" stroke-width="2.5"  marker-end="url(#arrow)"/>
<path d="M 570 196 L 650 196" fill="none" stroke="#64748b" stroke-width="2.5"  marker-end="url(#arrow)"/>
<path d="M 570 196 L 650 286" fill="none" stroke="#64748b" stroke-width="2.5"  marker-end="url(#arrow)"/>
<path d="M 870 106 L 950 106" fill="none" stroke="#64748b" stroke-width="2.5"  marker-end="url(#arrow)"/>
<path d="M 870 196 L 950 196" fill="none" stroke="#64748b" stroke-width="2.5"  marker-end="url(#arrow)"/>
<path d="M 870 286 L 950 286" fill="none" stroke="#64748b" stroke-width="2.5"  marker-end="url(#arrow)"/>
<path d="M 1170 106 L 1250 151" fill="none" stroke="#64748b" stroke-width="2.5"  marker-end="url(#arrow)"/>
<path d="M 1170 196 L 1250 151" fill="none" stroke="#64748b" stroke-width="2.5"  marker-end="url(#arrow)"/>
<path d="M 1170 286 L 1250 256" fill="none" stroke="#64748b" stroke-width="2.5"  marker-end="url(#arrow)"/>
<path d="M 570 416 L 650 416" fill="none" stroke="#64748b" stroke-width="2.5"  marker-end="url(#arrow)"/>
<path d="M 870 416 L 950 416" fill="none" stroke="#64748b" stroke-width="2.5"  marker-end="url(#arrow)"/>
<path d="M 460 232 L 460 380" fill="none" stroke="#64748b" stroke-width="2.5" stroke-dasharray="7 7" marker-end="url(#arrow)"/>

    <g id="card">
      <rect x="70" y="160" width="220" height="72" rx="14" fill="#fff7ed" stroke="#f0b45f" stroke-width="2"/>
      <text x="84" y="187" font-size="15" font-weight="800" fill="#172033">Customer Card Payment</text>
      <text x="84" y="210" font-size="12" fill="#64748b">Stripe PaymentIntent</text>
    </g>

    <g id="merchant">
      <rect x="350" y="160" width="220" height="72" rx="14" fill="#fff7ed" stroke="#f0b45f" stroke-width="2"/>
      <text x="364" y="187" font-size="15" font-weight="800" fill="#172033">Ridendine Merchant Balance</text>
      <text x="364" y="210" font-size="12" fill="#64748b">merchant of record</text>
    </g>

    <g id="capture">
      <rect x="650" y="70" width="220" height="72" rx="14" fill="#ffffff" stroke="#cbd5e1" stroke-width="2"/>
      <text x="664" y="97" font-size="15" font-weight="800" fill="#172033">customer_charge_capture</text>
      <text x="664" y="120" font-size="12" fill="#64748b">total captured</text>
    </g>

    <g id="tax">
      <rect x="650" y="160" width="220" height="72" rx="14" fill="#ffffff" stroke="#cbd5e1" stroke-width="2"/>
      <text x="664" y="187" font-size="15" font-weight="800" fill="#172033">tax_collected</text>
      <text x="664" y="210" font-size="12" fill="#64748b">tax visibility</text>
    </g>

    <g id="fee">
      <rect x="650" y="250" width="220" height="72" rx="14" fill="#ffffff" stroke="#cbd5e1" stroke-width="2"/>
      <text x="664" y="277" font-size="15" font-weight="800" fill="#172033">platform_fee</text>
      <text x="664" y="300" font-size="12" fill="#64748b">platform revenue</text>
    </g>

    <g id="chef">
      <rect x="950" y="70" width="220" height="72" rx="14" fill="#ecfdf5" stroke="#86efac" stroke-width="2"/>
      <text x="964" y="97" font-size="15" font-weight="800" fill="#172033">chef_payable</text>
      <text x="964" y="120" font-size="12" fill="#64748b">chef/storefront balance</text>
    </g>

    <g id="driver">
      <rect x="950" y="160" width="220" height="72" rx="14" fill="#ecfdf5" stroke="#86efac" stroke-width="2"/>
      <text x="964" y="187" font-size="15" font-weight="800" fill="#172033">driver_payable</text>
      <text x="964" y="210" font-size="12" fill="#64748b">delivery earnings</text>
    </g>

    <g id="tip">
      <rect x="950" y="250" width="220" height="72" rx="14" fill="#ecfdf5" stroke="#86efac" stroke-width="2"/>
      <text x="964" y="277" font-size="15" font-weight="800" fill="#172033">tip_payable</text>
      <text x="964" y="300" font-size="12" fill="#64748b">driver tips</text>
    </g>

    <g id="payout-run">
      <rect x="1250" y="115" width="220" height="72" rx="14" fill="#ffffff" stroke="#cbd5e1" stroke-width="2"/>
      <text x="1264" y="142" font-size="15" font-weight="800" fill="#172033">Payout Run</text>
      <text x="1264" y="165" font-size="12" fill="#64748b">chef / driver / instant</text>
    </g>

    <g id="payout-debit">
      <rect x="1250" y="220" width="220" height="72" rx="14" fill="#ffffff" stroke="#cbd5e1" stroke-width="2"/>
      <text x="1264" y="247" font-size="15" font-weight="800" fill="#172033">Negative Payable Entry</text>
      <text x="1264" y="270" font-size="12" fill="#64748b">settlement ledger debit</text>
    </g>

    <g id="refund">
      <rect x="350" y="380" width="220" height="72" rx="14" fill="#fee2e2" stroke="#fca5a5" stroke-width="2"/>
      <text x="364" y="407" font-size="15" font-weight="800" fill="#172033">Refund Event</text>
      <text x="364" y="430" font-size="12" fill="#64748b">Stripe charge.refunded</text>
    </g>

    <g id="reversal">
      <rect x="650" y="380" width="220" height="72" rx="14" fill="#fee2e2" stroke="#fca5a5" stroke-width="2"/>
      <text x="664" y="407" font-size="15" font-weight="800" fill="#172033">Refund Reversals</text>
      <text x="664" y="430" font-size="12" fill="#64748b">negative payable/platform entries</text>
    </g>

    <g id="recon">
      <rect x="950" y="380" width="220" height="72" rx="14" fill="#eff6ff" stroke="#93c5fd" stroke-width="2"/>
      <text x="964" y="407" font-size="15" font-weight="800" fill="#172033">Reconciliation</text>
      <text x="964" y="430" font-size="12" fill="#64748b">match Stripe, ledger, payouts</text>
    </g>
</svg>
